:SAMPLES-PER-SECOND 30
:FULLY-SPECIFIED
:DEGREES
450
root  3.49699 36.5569 12.2704 177.997 20.9352 169.744
RightUpLeg  -26.4917 -14.8214 -22.4016
RightLeg  39.6036 -6.18605 -5.73365
RightFoot  -7.83727 -0.685096 20.4365
RightToes  -1.74624e-010 0 -3.6325e-017
Spine  12.9288 -2.99505 2.37745
Spine1  19.9687 -1.75662 -3.21559
HEad  -17.1198 24.0103 -20.2979
LeftShoulder1  0.939521 -0.647823 -15.8431
LeftArm  15.6439 0.56099 -63.1383
LeftForeArm  59.0945 -78.6969 -68.3587
LeftHand  -2.37699 -3.5137 30.5958
RightShoulder  0.587395 -0.12918 9.97712
RightArm  -3.20514 -5.74989 56.3454
RightForeArm  145.856 65.0887 156.25
RightHand  -1.11193 4.23794 -13.622
LeftUpLeg  -7.71204 -6.3439 11.7504
LeftLeg  23.2507 7.18256 3.70273
LeftFoot  -9.40705 0.507443 -26.279
LeftToes  3.7286e-011 -1.5702e-010 -9.70233e-012
451
root  3.20287 36.4619 12.2082 177.513 20.925 170.239
RightUpLeg  -25.8646 -14.5384 -22.6129
RightLeg  39.6129 -6.03737 -5.60587
RightFoot  -7.69625 -0.720012 20.754
RightToes  -1.74624e-010 0 -3.6325e-017
Spine  12.9798 -2.58676 1.42623
Spine1  20.3794 -1.67157 -2.5959
HEad  -16.8496 23.7385 -19.6541
LeftShoulder1  0.952572 -0.712861 -15.8004
LeftArm  15.6494 0.540003 -63.0232
LeftForeArm  57.5703 -78.5835 -67.0909
LeftHand  -2.40135 -3.47918 31.0063
RightShoulder  0.587595 -0.151275 10.083
RightArm  -3.04238 -5.52072 56.4519
RightForeArm  145.611 65.2408 156.068
RightHand  -1.14745 4.32297 -13.9273
LeftUpLeg  -7.85748 -5.47009 11.94
LeftLeg  24.8926 5.90509 3.32139
LeftFoot  -10.9076 0.165287 -26.1065
LeftToes  3.7286e-011 -1.5702e-010 -9.70233e-012
452
root  2.84693 36.453 12.1094 177.199 20.7711 170.57
RightUpLeg  -25.0192 -14.4986 -23.0591
RightLeg  38.8321 -6.09325 -5.50478
RightFoot  -7.02592 -0.857081 21.2311
RightToes  -1.74624e-010 0 -3.6325e-017
Spine  12.8774 -2.30971 0.564991
Spine1  20.6832 -1.67469 -2.07219
HEad  -16.4443 23.6318 -19.1266
LeftShoulder1  0.956403 -0.728316 -15.8092
LeftArm  16.2681 1.01548 -62.6155
LeftForeArm  55.9393 -78.4504 -65.6489
LeftHand  -2.39553 -3.42981 31.0985
RightShoulder  0.587858 -0.162787 10.2981
RightArm  -2.75077 -5.65539 56.9284
RightForeArm  145.771 65.4193 155.9
RightHand  -1.17744 4.43058 -14.1313
LeftUpLeg  -8.33658 -4.85609 11.8138
LeftLeg  26.5743 4.89542 3.00051
LeftFoot  -11.701 -0.0125284 -25.6886
LeftToes  3.7286e-011 -1.5702e-010 -9.70233e-012
453
root  2.40329 36.5204 11.9797 177.144 20.2495 171.037
RightUpLeg  -23.797 -14.8482 -23.5195
RightLeg  37.2413 -6.46538 -5.51063
RightFoot  -5.73811 -1.11992 21.8283
RightToes  -1.74624e-010 0 -3.6325e-017
Spine  12.6112 -2.2783 0.178438
Spine1  20.9192 -1.80086 -1.73098
HEad  -15.7818 23.4922 -18.44
LeftShoulder1  0.958959 -0.758616 -15.7003
LeftArm  17.484 1.8931 -62.2457
LeftForeArm  54.3912 -78.3275 -64.5563
LeftHand  -2.36733 -3.25529 31.3392
RightShoulder  0.588877 -0.18284 10.5718
RightArm  -2.48384 -6.32768 57.5901
RightForeArm  145.981 65.48 155.859
RightHand  -1.20623 4.53373 -14.3227
LeftUpLeg  -9.31879 -5.14897 11.5318
LeftLeg  28.5158 4.42646 2.94926
LeftFoot  -11.9675 -0.0676826 -24.9986
LeftToes  3.7286e-011 -1.5702e-010 -9.70233e-012
454
root  1.85781 36.6509 11.8138 177.248 19.6171 171.827
RightUpLeg  -22.0891 -15.0131 -23.8137
RightLeg  34.7728 -7.08774 -5.51325
RightFoot  -3.90434 -1.49498 22.3253
RightToes  -1.74624e-010 0 -3.6325e-017
Spine  12.1988 -2.3467 0.238496
Spine1  21.2494 -1.95561 -1.43476
HEad  -14.9591 23.2409 -17.5916
LeftShoulder1  0.984047 -0.900149 -15.5337
LeftArm  19.1234 3.07443 -62.1901
LeftForeArm  53.32 -78.2707 -64.4692
LeftHand  -2.33365 -2.97666 31.8876
RightShoulder  0.588223 -0.232005 10.8394
RightArm  -2.19392 -7.41743 58.0705
RightForeArm  145.89 65.4081 155.924
RightHand  -1.25374 4.66711 -14.6809
LeftUpLeg  -10.308 -6.04246 11.2401
LeftLeg  30.3232 4.55298 3.22432
LeftFoot  -12.1332 -0.0961755 -24.0291
LeftToes  3.7286e-011 -1.5702e-010 -9.70233e-012
455
root  1.205 36.8513 11.6009 177.422 19.5402 172.76
RightUpLeg  -20.1067 -14.3879 -23.9751
RightLeg  31.138 -8.05169 -5.45064
RightFoot  -1.35043 -2.02281 22.7469
RightToes  -1.74624e-010 0 -3.6325e-017
Spine  11.5616 -2.273 0.280895
Spine1  21.7736 -1.98154 -1.10837
HEad  -14.1689 23.1623 -16.7546
LeftShoulder1  1.02036 -1.06521 -15.5206
LeftArm  20.8892 4.50081 -62.4663
LeftForeArm  53.0589 -78.2886 -65.1466
LeftHand  -2.31248 -2.81104 32.2159
RightShoulder  0.573765 -0.351523 11.0939
RightArm  -1.64854 -8.47829 58.2322
RightForeArm  145.631 65.423 155.88
RightHand  -1.31928 4.85392 -15.1564
LeftUpLeg  -10.6255 -6.72465 10.8014
LeftLeg  31.2414 5.33814 3.83599
LeftFoot  -12.4784 -0.156122 -22.9332
LeftToes  3.7286e-011 -1.5702e-010 -9.70233e-012
456
root  0.451243 37.1041 11.3463 177.721 20.4699 173.476
RightUpLeg  -18.286 -13.2364 -24.1823
RightLeg  26.2445 -9.38849 -5.21437
RightFoot  2.11643 -2.75443 23.1717
RightToes  -1.74624e-010 0 -3.6325e-017
Spine  10.6913 -1.94691 -0.235144
Spine1  22.269 -1.81972 -0.791793
HEad  -13.5361 23.5434 -16.0013
LeftShoulder1  1.02969 -1.06759 -15.7323
LeftArm  22.5067 6.11854 -62.9149
LeftForeArm  53.78 -78.3605 -66.024
LeftHand  -2.28808 -2.87862 31.6492
RightShoulder  0.544335 -0.549178 11.3495
RightArm  -0.801802 -9.29613 58.2399
RightForeArm  145.511 65.6312 155.647
RightHand  -1.37378 5.01436 -15.5312
LeftUpLeg  -10.25 -6.51115 9.99281
LeftLeg  31.0738 6.45045 4.52925
LeftFoot  -13.0589 -0.252757 -21.8031
LeftToes  3.7286e-011 -1.5702e-010 -9.70233e-012
457
root  -0.379602 37.3356 11.0793 178.173 22.2359 173.82
RightUpLeg  -16.9802 -12.3103 -24.5439
RightLeg  20.6877 -10.4327 -4.54467
RightFoot  6.19439 -3.5886 23.2616
RightToes  -1.74624e-010 0 -3.6325e-017
Spine  9.79082 -1.45645 -1.44734
Spine1  22.4047 -1.55545 -0.503026
HEad  -13.1736 24.2612 -15.3587
LeftShoulder1  1.00096 -0.887925 -16.0216
LeftArm  23.8158 7.69977 -63.3422
LeftForeArm  55.6768 -78.5019 -67.3863
LeftHand  -2.21529 -3.03824 30.141
RightShoulder  0.518284 -0.720178 11.5749
RightArm  0.0712221 -10.1611 58.3307
RightForeArm  145.699 65.7924 155.496
RightHand  -1.39965 5.08202 -15.7166
LeftUpLeg  -9.80199 -4.9183 8.8595
LeftLeg  30.4737 7.0801 4.8317
LeftFoot  -13.9101 -0.380038 -20.4604
LeftToes  3.7286e-011 -1.5702e-010 -9.70233e-012
458
root  -1.25951 37.4759 10.8383 178.623 24.2226 173.896
RightUpLeg  -16.2696 -12.4535 -24.8798
RightLeg  15.3456 -9.96618 -3.66811
RightFoot  10.5393 -4.40796 22.9079
RightToes  -1.74624e-010 0 -3.6325e-017
Spine  9.0581 -1.01409 -2.98178
Spine1  22.3244 -1.34465 -0.252036
HEad  -13.2665 24.9835 -14.9993
LeftShoulder1  0.965409 -0.696106 -16.2311
LeftArm  24.7882 8.63546 -63.5601
LeftForeArm  58.3582 -78.6917 -69.4801
LeftHand  -2.10014 -3.1217 28.3845
RightShoulder  0.518083 -0.734634 11.6772
RightArm  0.660112 -11.3166 58.7127
RightForeArm  146.239 65.6764 155.679
RightHand  -1.39549 5.07347 -15.6836
LeftUpLeg  -9.77112 -1.94304 7.5955
LeftLeg  30.2147 6.72929 4.5694
LeftFoot  -15.1141 -0.526928 -18.6178
LeftToes  3.7286e-011 -1.5702e-010 -9.70233e-012
459
root  -2.17428 37.5159 10.6497 178.803 25.7569 173.79
RightUpLeg  -15.8247 -14.6401 -25.0082
RightLeg  10.5373 -7.94689 -3.25322
RightFoot  15.3563 -5.32079 22.6097
RightToes  -1.74624e-010 0 -3.6325e-017
Spine  8.52135 -0.836092 -4.43256
Spine1  22.5624 -1.32695 -0.165948
HEad  -13.8664 25.5642 -15.0285
LeftShoulder1  0.96297 -0.659692 -16.3857
LeftArm  25.5283 8.09279 -63.3259
LeftForeArm  59.7242 -78.7846 -70.7006
LeftHand  -2.01225 -3.10327 27.3088
RightShoulder  0.540673 -0.606728 11.6205
RightArm  0.949537 -12.5003 59.5369
RightForeArm  146.849 65.4822 155.952
RightHand  -1.34957 4.98448 -15.306
LeftUpLeg  -10.1324 1.38685 6.17736
LeftLeg  30.5519 5.83353 4.06325
LeftFoot  -16.5887 -0.652801 -16.3227
LeftToes  3.7286e-011 -1.5702e-010 -9.70233e-012
460
root  -3.08027 37.4872 10.5312 178.536 26.5135 173.465
RightUpLeg  -15.1857 -17.1969 -25.6402
RightLeg  6.78403 -7.84096 -3.04122
RightFoot  20.1257 -6.17719 22.2065
RightToes  -1.74624e-010 0 -3.6325e-017
Spine  8.30163 -0.931569 -5.74787
Spine1  23.2571 -1.50901 -0.333564
HEad  -14.658 25.9718 -15.1582
LeftShoulder1  1.01435 -0.848112 -16.5809
LeftArm  26.1706 5.6784 -62.4551
LeftForeArm  57.2762 -78.6187 -68.7234
LeftHand  -1.9963 -2.99518 27.4327
RightShoulder  0.565508 -0.464269 11.5493
RightArm  1.27616 -13.3707 60.6722
RightForeArm  146.948 65.6321 155.804
RightHand  -1.26969 4.78373 -14.6995
LeftUpLeg  -10.6557 3.67289 4.50911
LeftLeg  31.3442 5.15897 3.74425
LeftFoot  -17.9785 -0.715201 -14.1157
LeftToes  3.7286e-011 -1.5702e-010 -9.70233e-012
